<svg width="159" height="32" viewBox="0 0 159 32" fill="none" xmlns="http://www.w3.org/2000/svg">
<path d="M41.748 8.578H48.993C50.1583 8.578 51.109 8.74667 51.845 9.084C52.581 9.42133 53.1483 9.843 53.547 10.349C53.9457 10.855 54.214 11.407 54.352 12.005C54.5053 12.603 54.582 13.155 54.582 13.661C54.582 14.167 54.5053 14.719 54.352 15.317C54.214 15.8997 53.9457 16.444 53.547 16.95C53.1483 17.456 52.581 17.8777 51.845 18.215C51.109 18.537 50.1583 18.698 48.993 18.698H44.623V25H41.748V8.578ZM44.623 16.352H48.832C49.154 16.352 49.4837 16.306 49.821 16.214C50.1583 16.122 50.465 15.9763 50.741 15.777C51.0323 15.5623 51.2623 15.2863 51.431 14.949C51.615 14.5963 51.707 14.1593 51.707 13.638C51.707 13.1013 51.6303 12.6567 51.477 12.304C51.3237 11.9513 51.1167 11.6753 50.856 11.476C50.5953 11.2613 50.2963 11.1157 49.959 11.039C49.6217 10.9623 49.2613 10.924 48.878 10.924H44.623V16.352ZM56.0308 13.109H58.4918V15.409H58.5378C58.6145 15.087 58.7602 14.7727 58.9748 14.466C59.2048 14.1593 59.4732 13.8833 59.7798 13.638C60.1018 13.3773 60.4545 13.1703 60.8378 13.017C61.2212 12.8637 61.6122 12.787 62.0108 12.787C62.3175 12.787 62.5245 12.7947 62.6318 12.81C62.7545 12.8253 62.8772 12.8407 62.9998 12.856V15.386C62.8158 15.3553 62.6242 15.3323 62.4248 15.317C62.2408 15.2863 62.0568 15.271 61.8728 15.271C61.4282 15.271 61.0065 15.363 60.6078 15.547C60.2245 15.7157 59.8872 15.9763 59.5958 16.329C59.3045 16.6663 59.0745 17.088 58.9058 17.594C58.7372 18.1 58.6528 18.6827 58.6528 19.342V25H56.0308V13.109ZM68.4735 25.322C67.5228 25.322 66.6718 25.1687 65.9205 24.862C65.1845 24.54 64.5558 24.103 64.0345 23.551C63.5285 22.999 63.1375 22.3397 62.8615 21.573C62.6008 20.8063 62.4705 19.963 62.4705 19.043C62.4705 18.1383 62.6008 17.3027 62.8615 16.536C63.1375 15.7693 63.5285 15.11 64.0345 14.558C64.5558 14.006 65.1845 13.5767 65.9205 13.27C66.6718 12.948 67.5228 12.787 68.4735 12.787C69.4241 12.787 70.2675 12.948 71.0035 13.27C71.7548 13.5767 72.3835 14.006 72.8895 14.558C73.4108 15.11 73.8018 15.7693 74.0625 16.536C74.3385 17.3027 74.4765 18.1383 74.4765 19.043C74.4765 19.963 74.3385 20.8063 74.0625 21.573C73.8018 22.3397 73.4108 22.999 72.8895 23.551C72.3835 24.103 71.7548 24.54 71.0035 24.862C70.2675 25.1687 69.4241 25.322 68.4735 25.322ZM68.4735 23.252C69.0561 23.252 69.5621 23.1293 69.9915 22.884C70.4208 22.6387 70.7735 22.3167 71.0495 21.918C71.3255 21.5193 71.5248 21.0747 71.6475 20.584C71.7855 20.078 71.8545 19.5643 71.8545 19.043C71.8545 18.537 71.7855 18.031 71.6475 17.525C71.5248 17.019 71.3255 16.5743 71.0495 16.191C70.7735 15.7923 70.4208 15.4703 69.9915 15.225C69.5621 14.9797 69.0561 14.857 68.4735 14.857C67.8908 14.857 67.3848 14.9797 66.9555 15.225C66.5261 15.4703 66.1735 15.7923 65.8975 16.191C65.6215 16.5743 65.4145 17.019 65.2765 17.525C65.1538 18.031 65.0925 18.537 65.0925 19.043C65.0925 19.5643 65.1538 20.078 65.2765 20.584C65.4145 21.0747 65.6215 21.5193 65.8975 21.918C66.1735 22.3167 66.5261 22.6387 66.9555 22.884C67.3848 23.1293 67.8908 23.252 68.4735 23.252ZM79.1633 18.744L75.0463 13.109H78.2203L80.7043 16.766L83.3033 13.109H86.3393L82.2913 18.606L86.8453 25H83.6943L80.6813 20.607L77.7603 25H74.6783L79.1633 18.744ZM87.6988 8.578H90.3208V11.062H87.6988V8.578ZM87.6988 13.109H90.3208V25H87.6988V13.109ZM100.653 18.008C100.622 17.594 100.53 17.1953 100.377 16.812C100.239 16.4287 100.039 16.099 99.7786 15.823C99.5333 15.5317 99.2266 15.3017 98.8586 15.133C98.506 14.949 98.1073 14.857 97.6626 14.857C97.2026 14.857 96.781 14.9413 96.3976 15.11C96.0296 15.2633 95.7076 15.4857 95.4316 15.777C95.1709 16.053 94.9563 16.3827 94.7876 16.766C94.6343 17.1493 94.5499 17.5633 94.5346 18.008H100.653ZM94.5346 19.733C94.5346 20.193 94.5959 20.6377 94.7186 21.067C94.8566 21.4963 95.0559 21.872 95.3166 22.194C95.5773 22.516 95.9069 22.7767 96.3056 22.976C96.7043 23.16 97.1796 23.252 97.7316 23.252C98.4983 23.252 99.1116 23.091 99.5716 22.769C100.047 22.4317 100.4 21.9333 100.63 21.274H103.114C102.976 21.918 102.738 22.493 102.401 22.999C102.063 23.505 101.657 23.9343 101.182 24.287C100.706 24.6243 100.17 24.8773 99.5716 25.046C98.989 25.23 98.3756 25.322 97.7316 25.322C96.7963 25.322 95.9683 25.1687 95.2476 24.862C94.5269 24.5553 93.9136 24.126 93.4076 23.574C92.9169 23.022 92.5413 22.3627 92.2806 21.596C92.0353 20.8293 91.9126 19.986 91.9126 19.066C91.9126 18.2227 92.0429 17.4253 92.3036 16.674C92.5796 15.9073 92.9629 15.2403 93.4536 14.673C93.9596 14.0903 94.5653 13.6303 95.2706 13.293C95.976 12.9557 96.7733 12.787 97.6626 12.787C98.598 12.787 99.4336 12.9863 100.17 13.385C100.921 13.7683 101.542 14.282 102.033 14.926C102.523 15.57 102.876 16.3137 103.091 17.157C103.321 17.985 103.382 18.8437 103.275 19.733H94.5346ZM115.779 25H113.295V23.39H113.249C112.896 24.08 112.383 24.5783 111.708 24.885C111.033 25.1763 110.32 25.322 109.569 25.322C108.634 25.322 107.813 25.161 107.108 24.839C106.418 24.5017 105.843 24.0493 105.383 23.482C104.923 22.9147 104.578 22.2477 104.348 21.481C104.118 20.699 104.003 19.8633 104.003 18.974C104.003 17.9007 104.149 16.973 104.44 16.191C104.731 15.409 105.115 14.765 105.59 14.259C106.081 13.753 106.633 13.385 107.246 13.155C107.875 12.9097 108.511 12.787 109.155 12.787C109.523 12.787 109.899 12.8253 110.282 12.902C110.665 12.9633 111.033 13.0707 111.386 13.224C111.739 13.3773 112.061 13.5767 112.352 13.822C112.659 14.052 112.912 14.328 113.111 14.65H113.157V8.578H115.779V25ZM106.625 19.181C106.625 19.687 106.686 20.1853 106.809 20.676C106.947 21.1667 107.146 21.6037 107.407 21.987C107.683 22.3703 108.028 22.677 108.442 22.907C108.856 23.137 109.347 23.252 109.914 23.252C110.497 23.252 110.995 23.1293 111.409 22.884C111.838 22.6387 112.183 22.3167 112.444 21.918C112.72 21.5193 112.919 21.0747 113.042 20.584C113.18 20.078 113.249 19.5643 113.249 19.043C113.249 17.7243 112.95 16.697 112.352 15.961C111.769 15.225 110.972 14.857 109.96 14.857C109.347 14.857 108.825 14.9873 108.396 15.248C107.982 15.4933 107.637 15.823 107.361 16.237C107.1 16.6357 106.909 17.0957 106.786 17.617C106.679 18.123 106.625 18.6443 106.625 19.181ZM118.27 8.578H122.318L126.849 21.435H126.895L131.311 8.578H135.313V25H132.576V12.327H132.53L127.976 25H125.607L121.053 12.327H121.007V25H118.27V8.578ZM147.657 22.355C147.657 22.677 147.695 22.907 147.772 23.045C147.864 23.183 148.033 23.252 148.278 23.252C148.355 23.252 148.447 23.252 148.554 23.252C148.661 23.252 148.784 23.2367 148.922 23.206V25.023C148.83 25.0537 148.707 25.0843 148.554 25.115C148.416 25.161 148.27 25.1993 148.117 25.23C147.964 25.2607 147.81 25.2837 147.657 25.299C147.504 25.3143 147.373 25.322 147.266 25.322C146.729 25.322 146.285 25.2147 145.932 25C145.579 24.7853 145.349 24.4097 145.242 23.873C144.721 24.379 144.077 24.747 143.31 24.977C142.559 25.207 141.83 25.322 141.125 25.322C140.588 25.322 140.075 25.2453 139.584 25.092C139.093 24.954 138.656 24.747 138.273 24.471C137.905 24.1797 137.606 23.8193 137.376 23.39C137.161 22.9453 137.054 22.4317 137.054 21.849C137.054 21.113 137.184 20.515 137.445 20.055C137.721 19.595 138.074 19.2347 138.503 18.974C138.948 18.7133 139.438 18.5293 139.975 18.422C140.527 18.2993 141.079 18.2073 141.631 18.146C142.106 18.054 142.559 17.9927 142.988 17.962C143.417 17.916 143.793 17.847 144.115 17.755C144.452 17.663 144.713 17.525 144.897 17.341C145.096 17.1417 145.196 16.8503 145.196 16.467C145.196 16.1297 145.112 15.8537 144.943 15.639C144.79 15.4243 144.59 15.2633 144.345 15.156C144.115 15.0333 143.854 14.9567 143.563 14.926C143.272 14.88 142.996 14.857 142.735 14.857C141.999 14.857 141.393 15.0103 140.918 15.317C140.443 15.6237 140.174 16.099 140.113 16.743H137.491C137.537 15.9763 137.721 15.34 138.043 14.834C138.365 14.328 138.771 13.9217 139.262 13.615C139.768 13.3083 140.335 13.0937 140.964 12.971C141.593 12.8483 142.237 12.787 142.896 12.787C143.479 12.787 144.054 12.8483 144.621 12.971C145.188 13.0937 145.694 13.293 146.139 13.569C146.599 13.845 146.967 14.2053 147.243 14.65C147.519 15.0793 147.657 15.6083 147.657 16.237V22.355ZM145.035 19.043C144.636 19.3037 144.146 19.4647 143.563 19.526C142.98 19.572 142.398 19.6487 141.815 19.756C141.539 19.802 141.271 19.871 141.01 19.963C140.749 20.0397 140.519 20.1547 140.32 20.308C140.121 20.446 139.96 20.6377 139.837 20.883C139.73 21.113 139.676 21.3967 139.676 21.734C139.676 22.0253 139.76 22.2707 139.929 22.47C140.098 22.6693 140.297 22.8303 140.527 22.953C140.772 23.0603 141.033 23.137 141.309 23.183C141.6 23.229 141.861 23.252 142.091 23.252C142.382 23.252 142.697 23.2137 143.034 23.137C143.371 23.0603 143.686 22.93 143.977 22.746C144.284 22.562 144.537 22.332 144.736 22.056C144.935 21.7647 145.035 21.412 145.035 20.998V19.043ZM149.857 8.578H152.479V11.062H149.857V8.578ZM149.857 13.109H152.479V25H149.857V13.109ZM154.715 8.578H157.337V25H154.715V8.578Z" fill="#242527"/>
<circle cx="16" cy="16" r="16" fill="#406AF6"/>
<g clip-path="url(#clip0_2_3607)">
<path d="M24.3244 16L18.9734 21.351L17.9034 20.281L22.1843 16L17.9034 11.719L18.9734 10.649L24.3244 16ZM9.81589 16L14.0969 20.281L13.0268 21.351L7.67578 16L13.0268 10.649L14.0969 11.719L9.81589 16Z" fill="white"/>
</g>
<defs>
<clipPath id="clip0_2_3607">
<rect width="18.1622" height="18.1622" fill="white" transform="translate(6.91895 6.91891)"/>
</clipPath>
</defs>
</svg>
